<?xml version="1.0" standalone="no"?>
<!DOCTYPE svg PUBLIC "-//W3C//DTD SVG 20010904//EN"
 "http://www.w3.org/TR/2001/REC-SVG-20010904/DTD/svg10.dtd">
<svg version="1.0" xmlns="http://www.w3.org/2000/svg"
 width="2040.000000pt" height="2247.000000pt" viewBox="0 0 2040.000000 2247.000000"
 preserveAspectRatio="xMidYMid meet">
<metadata>
Created by potrace 1.16, written by Peter Selinger 2001-2019
</metadata>
<g transform="translate(0.000000,2247.000000) scale(0.100000,-0.100000)"
fill="#000000" stroke="none">
<path d="M4135 21640 c-120 -6 -173 -13 -295 -42 -25 -5 -72 -14 -105 -18 -64
-8 -138 -25 -195 -45 -19 -7 -60 -19 -90 -28 -144 -41 -225 -69 -287 -97 -38
-17 -81 -37 -98 -45 -143 -65 -331 -162 -433 -223 -39 -23 -73 -42 -77 -42 -4
0 -13 -7 -21 -15 -9 -8 -81 -65 -162 -127 -81 -62 -154 -120 -163 -128 -151
-144 -273 -267 -304 -306 -22 -27 -50 -60 -61 -74 -115 -135 -161 -197 -253
-335 -58 -88 -130 -208 -159 -265 -30 -58 -57 -112 -62 -120 -5 -8 -11 -22
-14 -30 -4 -8 -17 -35 -31 -59 -14 -24 -25 -52 -25 -61 0 -9 -7 -25 -15 -36
-8 -10 -15 -25 -15 -32 0 -8 -6 -28 -14 -45 -52 -121 -104 -280 -115 -352 -4
-27 -12 -60 -19 -72 -7 -12 -12 -35 -12 -52 0 -17 -7 -51 -16 -76 -8 -26 -20
-92 -25 -148 -5 -56 -13 -129 -18 -162 -12 -81 -12 -627 0 -690 5 -27 14 -93
19 -145 5 -52 16 -120 24 -150 29 -111 39 -156 46 -200 4 -25 12 -58 19 -73 6
-16 11 -38 11 -50 0 -12 6 -33 13 -47 7 -14 23 -54 36 -90 13 -36 29 -78 36
-95 7 -16 21 -50 30 -75 15 -38 129 -280 155 -330 5 -8 24 -44 43 -80 28 -53
183 -295 214 -335 27 -34 145 -176 183 -219 86 -98 371 -373 415 -402 17 -10
66 -46 110 -79 104 -79 187 -134 255 -172 66 -36 137 -76 199 -112 26 -14 69
-37 96 -49 28 -13 58 -27 67 -33 10 -5 23 -9 29 -9 7 0 33 -10 58 -21 25 -12
62 -29 81 -37 19 -8 46 -20 60 -26 l25 -12 6 -814 c5 -702 8 -825 22 -885 9
-38 17 -86 17 -105 0 -42 26 -179 45 -241 8 -26 15 -55 15 -64 0 -33 92 -335
117 -385 7 -14 13 -31 13 -37 0 -7 19 -52 41 -100 44 -94 105 -225 120 -258 5
-11 18 -33 29 -50 10 -16 32 -52 47 -80 49 -84 58 -99 71 -113 6 -7 12 -17 12
-22 0 -5 36 -57 80 -115 44 -59 85 -116 90 -126 42 -77 451 -483 605 -599 74
-57 241 -169 346 -234 86 -54 416 -216 464 -229 29 -8 107 -36 130 -47 54 -25
305 -97 381 -110 28 -4 61 -13 72 -19 11 -6 40 -11 64 -11 24 0 75 -7 113 -15
151 -33 347 -38 1540 -44 l1190 -6 3 -1569 c2 -1393 0 -1572 -13 -1593 -9 -13
-23 -23 -31 -23 -9 0 -28 -7 -42 -15 -15 -8 -72 -32 -127 -54 -111 -43 -151
-61 -210 -95 -73 -42 -153 -85 -201 -111 -26 -14 -99 -62 -162 -108 -63 -45
-143 -102 -177 -127 -95 -68 -353 -324 -500 -496 -73 -85 -173 -218 -227 -301
-102 -157 -265 -471 -317 -613 -17 -47 -38 -98 -46 -113 -8 -16 -15 -33 -15
-39 0 -5 -6 -24 -14 -41 -25 -56 -46 -134 -77 -287 -6 -30 -17 -75 -25 -100
-8 -25 -14 -64 -14 -88 0 -24 -6 -75 -14 -115 -20 -103 -27 -232 -26 -467 2
-295 22 -532 59 -680 25 -105 33 -138 46 -200 11 -53 46 -161 78 -240 10 -25
38 -103 47 -135 13 -40 196 -409 229 -460 14 -22 30 -48 36 -57 155 -258 303
-438 571 -693 157 -150 395 -338 509 -405 39 -22 77 -45 85 -50 8 -5 51 -30
94 -55 70 -40 105 -58 191 -95 57 -24 123 -53 150 -65 57 -25 130 -52 190 -70
33 -10 71 -22 85 -28 14 -5 43 -13 65 -17 22 -5 54 -13 70 -18 56 -20 140 -41
210 -52 39 -7 106 -18 150 -26 44 -8 112 -19 150 -25 87 -12 650 -13 725 0 30
5 89 15 130 21 41 6 89 15 105 20 17 6 62 14 100 20 80 11 146 27 192 46 17 8
40 14 52 14 11 0 35 6 53 14 18 7 60 21 93 31 55 16 112 37 190 71 33 14 118
51 150 64 86 37 121 55 191 95 43 25 86 50 94 55 8 5 47 28 85 50 113 66 352
255 511 405 81 77 157 151 168 164 24 28 114 127 137 151 35 36 148 194 224
311 93 144 83 126 192 344 46 94 89 179 95 190 6 11 15 33 19 50 4 16 17 55
29 85 43 109 100 281 100 302 0 12 6 44 14 72 42 153 58 251 81 496 24 269 18
550 -16 745 -5 33 -14 94 -19 135 -4 41 -14 95 -20 120 -20 78 -32 134 -40
180 -10 52 -63 214 -85 256 -8 16 -15 36 -15 44 0 9 -4 20 -8 25 -4 6 -18 37
-31 70 -42 113 -215 450 -278 543 -35 51 -63 97 -63 101 0 4 -9 16 -20 26 -11
10 -20 23 -20 29 0 10 -103 141 -141 179 -8 7 -51 56 -96 108 -100 115 -343
347 -421 402 -31 23 -61 45 -67 49 -98 75 -231 168 -241 168 -3 0 -133 71
-240 132 -50 28 -107 55 -169 79 -33 13 -64 27 -69 31 -6 4 -17 8 -26 8 -8 0
-32 9 -53 20 -20 11 -43 20 -51 20 -7 0 -18 6 -24 13 -11 14 -25 3146 -13
3165 5 8 312 12 1196 15 1194 4 1379 9 1530 42 39 8 89 15 113 15 24 0 51 4
61 10 10 5 43 14 72 19 92 17 326 86 439 131 30 12 64 24 75 27 54 14 377 174
451 223 32 22 63 40 67 40 5 0 28 14 52 30 24 17 46 30 49 30 5 0 292 215 312
234 229 218 426 424 484 505 29 41 56 79 61 85 40 49 103 135 110 151 5 11 27
49 49 84 22 34 40 66 40 71 0 4 9 19 20 33 34 43 210 411 210 438 0 6 7 25 14
42 21 46 67 175 78 222 6 22 16 63 23 90 42 157 58 241 80 398 8 60 18 114 22
120 5 7 10 383 13 837 l5 824 30 14 c17 8 43 21 58 28 16 8 37 14 47 14 9 0
23 7 30 15 7 8 19 15 27 15 29 0 158 63 353 173 131 74 197 117 368 241 114
83 407 358 492 462 30 37 84 102 120 144 75 89 264 374 286 430 3 8 9 22 14
30 5 8 21 40 35 70 14 30 36 73 47 95 12 22 25 47 28 55 4 8 14 29 22 45 9 17
25 57 36 90 11 33 27 74 36 90 9 17 16 37 16 46 0 9 3 19 6 22 11 11 54 121
54 138 0 9 6 39 14 65 8 27 22 85 31 129 9 44 23 103 31 131 8 28 17 86 20
130 3 43 12 111 20 151 17 87 19 601 3 703 -5 36 -14 113 -19 172 -5 59 -12
113 -16 120 -5 7 -13 40 -20 73 -28 144 -62 267 -100 367 -19 49 -34 94 -34
102 0 8 -4 17 -9 21 -5 3 -13 20 -17 38 -15 71 -186 412 -272 542 -36 55 -86
132 -110 170 -25 39 -71 99 -102 135 -31 36 -78 94 -105 129 -69 91 -343 357
-455 442 -52 40 -97 76 -100 79 -3 3 -25 20 -50 37 -25 17 -54 40 -64 52 -11
11 -23 21 -27 21 -5 0 -41 19 -81 43 -40 23 -84 48 -98 55 -14 6 -32 16 -40
21 -55 34 -122 70 -166 89 -50 21 -136 60 -240 108 -61 28 -200 74 -223 74 -9
0 -21 4 -27 9 -5 5 -29 13 -54 19 -25 6 -58 15 -75 20 -71 25 -144 42 -174 42
-18 0 -60 6 -94 14 -136 32 -180 38 -383 47 -323 16 -656 -4 -810 -47 -28 -8
-67 -14 -86 -14 -33 0 -97 -15 -173 -41 -29 -10 -75 -23 -175 -50 -25 -6 -54
-15 -65 -20 -11 -4 -31 -11 -45 -14 -14 -4 -40 -13 -57 -21 -18 -8 -47 -21
-65 -29 -18 -8 -58 -25 -88 -39 -30 -13 -82 -36 -115 -50 -33 -15 -67 -31 -75
-36 -8 -5 -80 -46 -160 -91 -80 -46 -167 -99 -195 -118 -85 -60 -308 -233
-354 -276 -92 -85 -247 -242 -276 -280 -16 -22 -52 -67 -80 -100 -106 -127
-132 -163 -230 -310 -103 -154 -269 -474 -315 -605 -12 -36 -29 -79 -36 -97
-8 -17 -14 -34 -14 -38 0 -4 -6 -21 -14 -38 -22 -49 -38 -98 -46 -142 -11 -54
-39 -173 -50 -210 -41 -131 -64 -394 -64 -720 -1 -296 14 -462 55 -645 28
-123 37 -159 42 -168 4 -5 11 -33 16 -63 36 -201 241 -674 391 -904 36 -55 67
-102 70 -105 3 -3 23 -32 45 -65 44 -67 146 -195 215 -269 122 -133 398 -395
466 -443 42 -30 81 -59 88 -64 122 -102 391 -258 601 -349 28 -12 62 -28 77
-36 14 -8 35 -14 46 -14 11 0 25 -7 32 -15 7 -8 23 -15 35 -15 13 0 32 -8 44
-17 l22 -18 -5 -680 c-4 -654 -11 -831 -33 -885 -6 -14 -21 -58 -34 -99 -66
-216 -276 -477 -473 -587 -88 -49 -180 -94 -195 -94 -9 -1 -34 -8 -56 -16 -22
-8 -87 -23 -144 -34 -103 -20 -163 -20 -3556 -20 -3393 0 -3453 0 -3556 20
-57 11 -122 26 -144 34 -22 8 -46 15 -53 16 -14 0 -130 55 -201 95 -39 22 -87
58 -159 120 -62 52 -193 217 -231 289 -23 44 -45 84 -49 90 -5 6 -18 45 -31
86 -12 41 -28 95 -36 120 -13 38 -15 168 -15 800 -1 704 0 756 17 767 9 7 23
13 31 13 8 0 26 6 40 14 15 7 52 24 82 36 30 13 83 36 118 52 34 15 64 28 66
28 2 0 42 23 89 50 47 28 87 50 90 50 11 0 164 93 212 129 28 21 95 70 150
111 55 40 138 110 185 154 47 45 119 113 160 152 77 72 87 83 200 214 68 78
147 179 165 211 5 10 30 47 54 81 85 120 107 157 175 290 37 73 71 140 75 148
5 8 15 31 24 50 44 96 57 130 57 144 0 8 4 17 9 21 5 3 13 20 17 38 3 17 12
45 19 62 40 94 56 146 95 310 12 50 28 113 35 140 19 67 45 240 45 292 0 23 7
77 15 120 20 105 20 399 0 513 -8 47 -15 114 -15 150 0 65 -19 195 -45 300 -7
30 -23 100 -35 155 -13 55 -29 117 -36 138 -15 39 -34 91 -58 155 -8 20 -24
64 -37 97 -19 52 -125 283 -150 325 -4 8 -19 38 -33 65 -21 43 -182 294 -233
364 -31 41 -109 138 -132 162 -13 13 -37 43 -54 67 -17 23 -34 42 -39 42 -4 0
-8 6 -8 14 0 19 -277 281 -381 360 -226 170 -273 204 -336 239 -37 20 -75 41
-83 46 -78 48 -177 102 -230 125 -170 75 -241 106 -262 117 -19 10 -99 35
-218 69 -41 12 -88 26 -105 32 -16 5 -46 13 -65 18 -19 4 -48 13 -63 19 -16 6
-45 11 -64 11 -20 0 -62 6 -92 14 -191 49 -499 64 -886 46z m11670 -2276 c55
-3 129 -15 165 -26 134 -42 155 -50 166 -59 6 -5 37 -23 70 -40 120 -64 252
-174 334 -279 66 -86 147 -237 174 -325 10 -33 25 -75 32 -93 8 -18 14 -47 14
-63 0 -17 7 -71 16 -119 15 -81 15 -96 0 -183 -9 -52 -16 -109 -16 -127 0 -17
-6 -46 -13 -63 -8 -18 -24 -62 -36 -99 -43 -127 -120 -258 -230 -390 -9 -11
-54 -49 -100 -85 -125 -97 -253 -165 -381 -203 -41 -12 -86 -26 -100 -32 -36
-14 -314 -21 -385 -9 -73 12 -139 29 -182 47 -17 8 -40 14 -50 14 -11 0 -57
20 -103 45 -46 25 -87 45 -91 45 -4 0 -14 6 -21 13 -7 6 -33 26 -57 42 -55 37
-151 130 -218 212 -51 61 -149 241 -164 298 -4 17 -12 44 -18 60 -37 109 -41
140 -41 320 0 184 7 231 46 323 8 18 14 42 14 53 0 32 108 234 162 302 61 77
137 157 150 157 5 0 31 21 58 46 27 26 60 52 73 59 13 7 53 28 88 47 35 20 96
45 134 58 39 12 87 28 108 36 20 8 65 14 100 15 34 0 82 4 107 9 25 4 56 6 70
4 14 -2 70 -6 125 -10z m-11100 -25 c113 -33 146 -47 308 -132 15 -8 50 -35
77 -61 27 -25 54 -46 60 -46 6 0 13 -7 16 -15 4 -8 10 -15 15 -15 21 0 147
-157 195 -243 44 -79 84 -166 84 -183 0 -7 6 -28 14 -46 44 -106 51 -148 50
-332 0 -183 -8 -235 -50 -334 -8 -18 -14 -40 -14 -50 0 -30 -104 -222 -152
-280 -26 -31 -62 -75 -80 -98 -18 -23 -47 -52 -64 -65 -105 -81 -144 -108
-189 -131 -27 -14 -72 -37 -99 -52 -27 -14 -58 -26 -68 -26 -11 0 -34 -6 -51
-14 -43 -19 -108 -35 -187 -48 -76 -12 -344 -5 -380 10 -14 6 -59 20 -100 33
-173 51 -406 197 -495 309 -22 27 -52 65 -68 82 -38 46 -123 210 -148 288 -11
36 -27 80 -35 98 -8 18 -14 48 -14 67 0 19 -7 76 -16 126 -14 83 -14 98 0 168
9 43 16 96 16 117 0 21 6 51 14 65 7 14 16 43 20 64 4 20 11 45 16 54 4 9 32
65 60 124 76 158 145 244 279 352 112 89 235 159 336 189 33 10 69 23 80 29
57 32 456 28 570 -4z m5575 -14245 c30 -9 69 -20 85 -26 17 -5 46 -13 65 -17
19 -5 62 -23 95 -41 33 -19 74 -41 92 -50 120 -64 311 -249 369 -359 14 -25
29 -50 35 -55 5 -6 9 -18 9 -27 0 -9 7 -22 15 -29 8 -7 24 -44 36 -84 12 -39
26 -80 30 -91 18 -41 41 -173 46 -265 4 -72 0 -123 -16 -215 -12 -65 -26 -124
-30 -130 -5 -5 -12 -26 -16 -45 -8 -39 -104 -243 -117 -248 -4 -2 -8 -9 -8
-16 0 -7 -24 -39 -53 -72 -30 -32 -64 -71 -77 -86 -29 -34 -159 -145 -188
-161 -106 -58 -187 -96 -237 -111 -33 -10 -76 -24 -95 -32 -35 -13 -184 -28
-275 -28 -91 0 -240 15 -275 28 -19 8 -62 22 -95 32 -50 15 -120 47 -230 108
-24 13 -129 100 -165 136 -108 107 -169 194 -241 340 -88 180 -126 450 -91
635 20 103 75 277 96 305 7 8 23 38 36 65 34 73 117 181 194 253 36 34 69 62
74 62 4 0 25 16 47 35 22 19 67 49 100 66 33 16 78 41 100 54 22 13 50 24 62
25 12 0 37 6 55 14 95 40 221 56 398 49 63 -2 140 -11 170 -19z"/>
</g>
</svg>
