<?xml version="1.0" encoding="utf-8"?>
<svg viewBox="0 0 500 500" xmlns="http://www.w3.org/2000/svg">
  <g transform="matrix(0.011928, 0, 0, -0.011928, 220.936829, 277.006042)" fill="#000000" stroke="none" style="">
    <g transform="matrix(1.585339, 0, 0, 1.585339, -14030.994238, -16521.417706)" fill="#000000" stroke="none">
      <path d="M 6655 24890 C 4243 24883 4438 24888 4085 24824 C 3082 24643 2193 24068 1593 23212 C 1350 22865 1114 22366 1015 21985 C 907 21568 900 21116 900 13820 C 901 7583 908 6609 955 6287 C 994 6023 1108 5668 1263 5333 C 1566 4676 2010 4137 2377 3980 C 2626 3875 2988 3868 3246 3965 C 3445 4040 3654 4208 3775 4391 C 3924 4615 3988 4867 3962 5128 C 3936 5394 3847 5584 3589 5930 C 3359 6238 3280 6410 3243 6680 C 3224 6822 3230 7161 3254 7288 C 3311 7595 3420 7798 3652 8030 C 3916 8294 4226 8453 4566 8499 C 4763 8526 5889 8532 11523 8537 L 17300 8542 L 17300 6962 L 17300 5383 L 17173 5377 C 17102 5373 16861 5370 16635 5370 C 15964 5369 14320.91 5340 14320.91 5340 C 12866.618 5294.315 12922.403 3016.034 14322 3060 L 16504 3060 L 18685 3060 C 18685 3060 19077.748 3031.287 19382.508 3336.047 C 19597.509 3551.048 19600 3964 19600 3964 L 19600 13976 L 19600 23989 C 19600 23989 19579.25 24354.885 19352.52 24581.615 C 19060.831 24873.304 18695 24888 18695 24888 L 13775 24892 C 11069 24894 7865 24893 6655 24890 Z M 17298 16708 L 17295 10835 L 11575 10829 C 6392 10823 4750.465 10795 4320 10795 C 3551.914 10795 3222 10520 3218 10520 C 3206 10520 3209 19771 3220 20350 C 3238 21266 3260 21465 3365 21687 C 3455 21878 3585 22045 3750 22184 C 3931 22335 4127 22450 4311 22511 L 4405 22542 L 4896 22551 C 5738 22568 8327 22577 12898 22578 L 17300 22580 L 17298 16708 Z"/>
      <path d="M 6445 6149 C 5753 6131 5641 6094 5619 5879 C 5599 5685 5590 4857 5590 3165 C 5590 1070 5598 735 5647 515 C 5677 382 5763 333 5954 342 C 6075 348 6114 362 6238 452 C 6424 585 6838 891 7380 1295 C 8022 1773 8146 1864 8315 1977 C 8603 2169 8712 2202 8850 2138 C 8920 2106 9139 1946 10100 1226 C 10891 632 11202 404 11255 377 C 11347 331 11538 327 11626 370 C 11782 448 11789 574 11790 3130 C 11790 4718 11760 5860 11760 5860 C 11760 5860 11761.541 5955.62 11672.949 6035.758 C 11558.949 6143.758 11527 6135 11038 6150 C 10682 6161 6856 6161 6445 6149 Z"/>
    </g>
  </g>
</svg>